{"title":"New York I Love You (2009) DVDrip (optional NORDIC SUBS)","uid":5739134,"size":733427225,"categoryP":"video","categoryS":"movies","magnet":"?xt=urn:btih:266696ed5aa052241be4a7d2b496abacc0d1df4b&amp;dn=New+York+I+Love+You+%282009%29+DVDrip+%28optional+NORDIC+SUBS%29&amp;tr=udp%3A%2F%2Ftracker.openbittorrent.com%3A80&amp;tr=udp%3A%2F%2Fopen.demonii.com%3A1337&amp;tr=udp%3A%2F%2Ftracker.coppersurfer.tk%3A6969&amp;tr=udp%3A%2F%2Fexodus.desync.com%3A6969","seeders":1,"leechers":0,"uploader":"Kuthumi","files":-1,"time":1280935829,"description":" &lt;a href=&quot;http://www.imdb.com/title/tt0808399/&quot; rel=&quot;nofollow&quot; target=&quot;_NEW&quot;&gt;http://www.imdb.com/title/tt0808399/&lt;/a&gt;\n\na.k.a.\nNew York I Love You (2009)\n\nOptional subtitles in separate idx/sub files (Work in Windows Media Player etc., see enclosed Note): \nDanish, Finnish, Norwegian, Swedish.\n\nCharming episode film joining several love stories set in New York. \n\nWidescreen DVDrip XviD 2-pass 720x384, great stereo sound AC3.\nRuns well in both my standalone DivX players.\n\nMediaInfo analysis:\nFormat/Info                      : Audio Video Interleave\nFile size                        : 697 MiB\nDuration                         : 1h 38mn\nOverall bit rate                 : 987 Kbps\n\nVideo\nID                               : 0\nFormat                           : MPEG-4 Visual\nFormat profile                   : Advanced Simple@L5\nFormat settings, BVOP            : Yes\nFormat settings, QPel            : No\nFormat settings, GMC             : No warppoints\nFormat settings, Matrix          : Default (H.263)\nMuxing mode                      : Packed bitstream\nCodec ID                         : XVID\nCodec ID/Hint                    : XviD\nDuration                         : 1h 38mn\nBit rate                         : 849 Kbps\nWidth                            : 720 pixels\nHeight                           : 384 pixels\nDisplay aspect ratio             : 1.875\nFrame rate                       : 25.000 fps\nColor space                      : YUV\nChroma subsampling               : 4:2:0\nBit depth                        : 8 bits\nScan type                        : Progressive\nBits/(Pixel*Frame)               : 0.123\nStream size                      : 600 MiB (86%)\nWriting library                  : XviD 1.2.1 (UTC 2008-12-04)\n\nAudio\nID                               : 1\nFormat                           : MPEG Audio\nFormat version                   : Version 1\nFormat profile                   : Layer 3\nMode                             : Joint stereo\nMode extension                   : MS Stereo\nCodec ID                         : 55\nCodec ID/Hint                    : MP3\nDuration                         : 1h 38mn\nBit rate mode                    : Constant\nBit rate                         : 128 Kbps\nChannel(s)                       : 2 channels\nSampling rate                    : 48.0 KHz\nStream size                      : 90.5 MiB (13%)\nAlignment                        : Aligned on interleaves\nInterleave, duration             : 40 ms (1.00 video frame)\nInterleave, preload duration     : 504 ms\nWriting library                  : LAME3.97\n\nSource: PAL retail (note that PAL/NTSC will give no problems for avi files).\nWith thanks to the uploader of the Nordic DVD.\n","torrent":{"xt":"urn:btih:266696ed5aa052241be4a7d2b496abacc0d1df4b","amp;dn":"New+York+I+Love+You+%282009%29+DVDrip+%28optional+NORDIC+SUBS%29","amp;tr":["udp%3A%2F%2Ftracker.openbittorrent.com%3A80","udp%3A%2F%2Fopen.demonii.com%3A1337","udp%3A%2F%2Ftracker.coppersurfer.tk%3A6969","udp%3A%2F%2Fexodus.desync.com%3A6969"],"infoHash":"266696ed5aa052241be4a7d2b496abacc0d1df4b","infoHashBuffer":{"type":"Buffer","data":[38,102,150,237,90,160,82,36,27,228,167,210,180,150,171,172,192,209,223,75]},"announce":[],"urlList":[]}}